<svg data-v-0dd9719b="" version="1.0" xmlns="http://www.w3.org/2000/svg" xmlns:xlink="http://www.w3.org/1999/xlink" width="100%" height="100%" viewBox="0 0 340.000000 250.000000" preserveAspectRatio="xMidYMid meet" color-interpolation-filters="sRGB" style="margin: auto;"> <rect data-v-0dd9719b="" x="0" y="0" width="100%" height="100%" fill="#ffffff" fill-opacity="0" class="background"></rect> <rect data-v-0dd9719b="" x="0" y="0" width="100%" height="100%" fill="url(#watermark)" fill-opacity="1" class="watermarklayer"></rect> <g data-v-0dd9719b="" fill="#009ebd" class="icon-text-wrapper icon-svg-group iconsvg" transform="translate(140,72.93481826782227)"><g class="iconsvg-imagesvg" transform="translate(0,0)"><g><rect fill="#009ebd" fill-opacity="0" stroke-width="2" x="0" y="0" width="60" height="39.45836813342189" class="image-rect"></rect> <svg x="0" y="0" width="60" height="39.45836813342189" filtersec="colorsb3709431485" class="image-svg-svg primary" style="overflow: visible;"><svg xmlns="http://www.w3.org/2000/svg" viewBox="0 0.00773219158872962 58.81999969482422 38.68226623535156"><title>资源 1</title><g id="图层_2" data-name="图层 2"><g id="Layer_1" data-name="Layer 1"><path d="M46.74,11.42A13.27,13.27,0,0,0,22.21,6.47,9,9,0,0,0,9.31,17.76,10.19,10.19,0,0,0,0,27.91c0,5.64,5.35,10.78,12.2,10.78,9.74,0,13.66-4.58,13.66-11.55V23H22.27L30,14.76,37.64,23H34v4.1c0,7.61,5.59,11.55,11.45,11.55,8.11,0,13.37-6.57,13.37-13.95A13.37,13.37,0,0,0,46.74,11.42Z" fill="#009ebd"></path></g></g></svg></svg> <!----></g></g> <g transform="translate(10.625,39.45836639404297)"><g data-gra="path-name" fill-rule="" class="tp-name iconsvg-namesvg" transform="translate(0,0)"><g transform="scale(1)"><g><path d="M10.6-13.59C11.7-13.65 13-13.71 14.3-13.71 15.67-13.71 17.23-13.65 18.85-13.52 18.46-9.04 17.81-3.9 17.16 0.52L26.65 0.84C26.85-5.85 27.04-11.83 27.3-17.94 27.43-21 27.69-23.4 27.69-26.39 27.69-36.92 25.74-46.87 15.21-46.87 13.33-46.87 11.7-46.54 10.34-45.89 3.64-42.7 2.27-33.48 2.27-23.6 2.27-16.77 2.99-10.53 2.99-3.77L2.99-1.36C2.99-0.52 2.99 0.26 2.93 1.04L11.89 0.78C11.18-3.71 10.86-8.78 10.6-13.59ZM12.09-20.21C11.51-20.21 10.86-20.21 10.21-20.28 10.08-22.69 9.95-24.38 9.95-26.59 9.95-30.94 10.34-34.71 11.51-37.57 12.22-39.39 13.39-41.08 15.54-41.08 16.96-41.08 18.07-40.11 18.85-38.22 19.63-36.34 19.96-33.48 19.96-29.84 19.96-26.39 19.63-23.53 19.37-20.41 18-20.28 16.19-20.21 13.91-20.21ZM41.02-44.52C41.02-45.18 40.89-45.89 40.63-46.48 39.91-48.1 38.35-49.47 36.08-49.47 35.43-49.47 34.78-49.34 34.19-49.08 32.57-48.36 31.14-46.8 31.14-44.52 31.14-43.88 31.27-43.23 31.53-42.64 32.24-41.02 33.8-39.59 36.08-39.59 36.73-39.59 37.44-39.72 38.03-39.98 39.65-40.69 41.02-42.25 41.02-44.52ZM32.83-6.7L32.83-2.6C32.83-1.24 32.83 0.26 32.76 1.69L39.98 1.43 39.98-2.15C39.98-13.2 39.98-24.7 41.02-34.91L31.66-34.77C32.44-25.61 32.83-16.57 32.83-6.7Z" transform="translate(-2.2699999809265137, 49.470001220703125)"></path></g> <!----> <!----> <!----> <!----> <!----> <!----> <!----></g></g> <g data-gra="path-slogan" fill-rule="" class="tp-slogan iconsvg-slogansvg" fill="#009ebd" transform="translate(12.625,57.15999984741211)"><!----> <!----> <g transform="scale(1, 1)"><g transform="scale(1)"><path d="M3.30-4.18L3.30-7.51L4.38-7.51L4.38 0L3.30 0L3.30-3.30L1.70-3.30L1.70 0L0.62 0L0.62-7.51L1.70-7.51L1.70-4.18L3.30-4.18ZM8.09-1.22L8.09-7.51L9.18-7.51L9.18-1.06Q9.18 0 8.05 0L8.05 0L6.72 0Q5.59 0 5.59-1.06L5.59-1.06L5.59-7.51L6.68-7.51L6.68-1.22Q6.68-1.01 6.76-0.94Q6.83-0.88 7.04-0.88L7.04-0.88L7.73-0.88Q7.96-0.88 8.02-0.94Q8.09-1.01 8.09-1.22L8.09-1.22ZM13.03-4.60L13.03-4.60L13.03-6.31Q13.03-6.53 12.96-6.59Q12.89-6.66 12.67-6.66L12.67-6.66L11.47-6.66L11.47-4.25L12.67-4.25Q12.89-4.25 12.96-4.31Q13.03-4.38 13.03-4.60ZM13.03-1.20L13.03-1.20L13.03-3.05Q13.03-3.26 12.96-3.33Q12.89-3.40 12.67-3.40L12.67-3.40L11.47-3.40L11.47-0.85L12.67-0.85Q12.89-0.85 12.96-0.92Q13.03-0.98 13.03-1.20ZM10.39 0L10.39-7.51L13.00-7.51Q14.12-7.51 14.12-6.46L14.12-6.46L14.12-4.55Q14.12-3.91 13.64-3.80L13.64-3.80Q14.12-3.68 14.12-3.11L14.12-3.11L14.12-1.06Q14.12 0 13.00 0L13.00 0L10.39 0Z" transform="translate(-0.624, 7.5120000000000005)"></path></g></g></g></g></g><defs v-gra="od"></defs></svg>